<?xml version="1.0" encoding="UTF-8" standalone="no"?>
<!DOCTYPE svg PUBLIC "-//W3C//DTD SVG 1.0//EN" "http://www.w3.org/TR/2001/PR-SVG-20010719/DTD/svg10.dtd">
<svg width="98cm" height="42cm" viewBox="-3 -88 1956 838" xmlns="http://www.w3.org/2000/svg" xmlns:xlink="http://www.w3.org/1999/xlink">
  <g>
    <rect style="fill: #ffffff" x="1286" y="328" width="258.1" height="44"/>
    <rect style="fill: none; fill-opacity:0; stroke-width: 2; stroke: #000000" x="1286" y="328" width="258.1" height="44"/>
    <text font-size="12.8" style="fill: #000000;text-anchor:middle;font-family:monospace;font-style:normal;font-weight:normal" x="1415.05" y="343.2">&lt;&lt;Interface&gt;&gt;</text>
    <text font-size="16" style="fill: #000000;text-anchor:middle;font-family:sans-serif;font-style:normal;font-weight:700" x="1415.05" y="364">EntradaSalidaFabricaAbstracta</text>
    <rect style="fill: #ffffff" x="1286" y="372" width="258.1" height="8"/>
    <rect style="fill: none; fill-opacity:0; stroke-width: 2; stroke: #000000" x="1286" y="372" width="258.1" height="8"/>
    <rect style="fill: #ffffff" x="1286" y="380" width="258.1" height="36"/>
    <rect style="fill: none; fill-opacity:0; stroke-width: 2; stroke: #000000" x="1286" y="380" width="258.1" height="36"/>
    <text font-size="12.8" style="fill: #000000;text-anchor:start;font-family:monospace;font-style:normal;font-weight:normal" x="1289" y="393.2">+crearSalida(): Salida</text>
    <text font-size="12.8" style="fill: #000000;text-anchor:start;font-family:monospace;font-style:normal;font-weight:normal" x="1289" y="409.2">+crearEntrada(): Entrada</text>
  </g>
  <g>
    <rect style="fill: #ffffff" x="802" y="336" width="231.5" height="28"/>
    <rect style="fill: none; fill-opacity:0; stroke-width: 2; stroke: #000000" x="802" y="336" width="231.5" height="28"/>
    <text font-size="16" style="fill: #000000;text-anchor:middle;font-family:sans-serif;font-style:normal;font-weight:700" x="917.75" y="356">FabricaEntradaSalidaFrame</text>
    <rect style="fill: #ffffff" x="802" y="364" width="231.5" height="8"/>
    <rect style="fill: none; fill-opacity:0; stroke-width: 2; stroke: #000000" x="802" y="364" width="231.5" height="8"/>
    <rect style="fill: #ffffff" x="802" y="372" width="231.5" height="36"/>
    <rect style="fill: none; fill-opacity:0; stroke-width: 2; stroke: #000000" x="802" y="372" width="231.5" height="36"/>
    <text font-size="12.8" style="fill: #000000;text-anchor:start;font-family:monospace;font-style:normal;font-weight:normal" x="805" y="385.2">+crearEntrada(): Entrada</text>
    <text font-size="12.8" style="fill: #000000;text-anchor:start;font-family:monospace;font-style:normal;font-weight:normal" x="805" y="401.2">+crearSalida(): Salida</text>
  </g>
  <g>
    <rect style="fill: #ffffff" x="1055.89" y="664.686" width="244.35" height="28"/>
    <rect style="fill: none; fill-opacity:0; stroke-width: 2; stroke: #000000" x="1055.89" y="664.686" width="244.35" height="28"/>
    <text font-size="16" style="fill: #000000;text-anchor:middle;font-family:sans-serif;font-style:normal;font-weight:700" x="1178.07" y="684.686">FabricaEntradaSalidaConsola</text>
    <rect style="fill: #ffffff" x="1055.89" y="692.686" width="244.35" height="8"/>
    <rect style="fill: none; fill-opacity:0; stroke-width: 2; stroke: #000000" x="1055.89" y="692.686" width="244.35" height="8"/>
    <rect style="fill: #ffffff" x="1055.89" y="700.686" width="244.35" height="36"/>
    <rect style="fill: none; fill-opacity:0; stroke-width: 2; stroke: #000000" x="1055.89" y="700.686" width="244.35" height="36"/>
    <text font-size="12.8" style="fill: #000000;text-anchor:start;font-family:monospace;font-style:normal;font-weight:normal" x="1058.89" y="713.886">+crearEntrada(): Entrada</text>
    <text font-size="12.8" style="fill: #000000;text-anchor:start;font-family:monospace;font-style:normal;font-weight:normal" x="1058.89" y="729.886">+crearSalida(): Salida</text>
  </g>
  <g>
    <rect style="fill: #ffffff" x="803.9" y="111" width="216.95" height="28"/>
    <rect style="fill: none; fill-opacity:0; stroke-width: 2; stroke: #000000" x="803.9" y="111" width="216.95" height="28"/>
    <text font-size="16" style="fill: #000000;text-anchor:middle;font-family:sans-serif;font-style:normal;font-weight:700" x="912.375" y="131">FabricaEntradaSalidaWeb</text>
    <rect style="fill: #ffffff" x="803.9" y="139" width="216.95" height="8"/>
    <rect style="fill: none; fill-opacity:0; stroke-width: 2; stroke: #000000" x="803.9" y="139" width="216.95" height="8"/>
    <rect style="fill: #ffffff" x="803.9" y="147" width="216.95" height="36"/>
    <rect style="fill: none; fill-opacity:0; stroke-width: 2; stroke: #000000" x="803.9" y="147" width="216.95" height="36"/>
    <text font-size="12.8" style="fill: #000000;text-anchor:start;font-family:monospace;font-style:normal;font-weight:normal" x="806.9" y="160.2">+crearEntrada(): Entrada</text>
    <text font-size="12.8" style="fill: #000000;text-anchor:start;font-family:monospace;font-style:normal;font-weight:normal" x="806.9" y="176.2">+crearSalida(): Salida</text>
  </g>
  <g>
    <rect style="fill: #ffffff" x="34.5744" y="300" width="156.3" height="28"/>
    <rect style="fill: none; fill-opacity:0; stroke-width: 2; stroke: #000000" x="34.5744" y="300" width="156.3" height="28"/>
    <text font-size="16" style="fill: #000000;text-anchor:middle;font-family:sans-serif;font-style:normal;font-weight:normal" x="112.724" y="320">Entrada</text>
    <rect style="fill: #ffffff" x="34.5744" y="328" width="156.3" height="8"/>
    <rect style="fill: none; fill-opacity:0; stroke-width: 2; stroke: #000000" x="34.5744" y="328" width="156.3" height="8"/>
    <rect style="fill: #ffffff" x="34.5744" y="336" width="156.3" height="20"/>
    <rect style="fill: none; fill-opacity:0; stroke-width: 2; stroke: #000000" x="34.5744" y="336" width="156.3" height="20"/>
    <text font-size="12.8" style="fill: #000000;text-anchor:start;font-family:monospace;font-style:normal;font-weight:normal" x="37.5744" y="349.2">+capturar(): String</text>
  </g>
  <g>
    <rect style="fill: #ffffff" x="-1.63014" y="479.084" width="241" height="28"/>
    <rect style="fill: none; fill-opacity:0; stroke-width: 2; stroke: #000000" x="-1.63014" y="479.084" width="241" height="28"/>
    <text font-size="16" style="fill: #000000;text-anchor:middle;font-family:sans-serif;font-style:normal;font-weight:normal" x="118.87" y="499.084">Salida</text>
    <rect style="fill: #ffffff" x="-1.63014" y="507.084" width="241" height="8"/>
    <rect style="fill: none; fill-opacity:0; stroke-width: 2; stroke: #000000" x="-1.63014" y="507.084" width="241" height="8"/>
    <rect style="fill: #ffffff" x="-1.63014" y="515.084" width="241" height="20"/>
    <rect style="fill: none; fill-opacity:0; stroke-width: 2; stroke: #000000" x="-1.63014" y="515.084" width="241" height="20"/>
    <text font-size="12.8" style="fill: #000000;text-anchor:start;font-family:monospace;font-style:normal;font-weight:normal" x="1.36986" y="528.284">+mostrar(mensaje:String): void</text>
  </g>
  <g>
    <rect style="fill: #ffffff" x="510.032" y="-85.8659" width="156.3" height="28"/>
    <rect style="fill: none; fill-opacity:0; stroke-width: 2; stroke: #000000" x="510.032" y="-85.8659" width="156.3" height="28"/>
    <text font-size="16" style="fill: #000000;text-anchor:middle;font-family:sans-serif;font-style:normal;font-weight:700" x="588.182" y="-65.8659">EntradaWeb</text>
    <rect style="fill: #ffffff" x="510.032" y="-57.8659" width="156.3" height="8"/>
    <rect style="fill: none; fill-opacity:0; stroke-width: 2; stroke: #000000" x="510.032" y="-57.8659" width="156.3" height="8"/>
    <rect style="fill: #ffffff" x="510.032" y="-49.8659" width="156.3" height="20"/>
    <rect style="fill: none; fill-opacity:0; stroke-width: 2; stroke: #000000" x="510.032" y="-49.8659" width="156.3" height="20"/>
    <text font-size="12.8" style="fill: #000000;text-anchor:start;font-family:monospace;font-style:normal;font-weight:normal" x="513.032" y="-36.6659">+capturar(): String</text>
  </g>
  <g>
    <rect style="fill: #ffffff" x="306.771" y="37.5182" width="241" height="28"/>
    <rect style="fill: none; fill-opacity:0; stroke-width: 2; stroke: #000000" x="306.771" y="37.5182" width="241" height="28"/>
    <text font-size="16" style="fill: #000000;text-anchor:middle;font-family:sans-serif;font-style:normal;font-weight:700" x="427.271" y="57.5182">SalidaWeb</text>
    <rect style="fill: #ffffff" x="306.771" y="65.5182" width="241" height="8"/>
    <rect style="fill: none; fill-opacity:0; stroke-width: 2; stroke: #000000" x="306.771" y="65.5182" width="241" height="8"/>
    <rect style="fill: #ffffff" x="306.771" y="73.5182" width="241" height="20"/>
    <rect style="fill: none; fill-opacity:0; stroke-width: 2; stroke: #000000" x="306.771" y="73.5182" width="241" height="20"/>
    <text font-size="12.8" style="fill: #000000;text-anchor:start;font-family:monospace;font-style:normal;font-weight:normal" x="309.771" y="86.7182">+mostrar(mensaje:String): void</text>
  </g>
  <g>
    <polyline style="fill: none; fill-opacity:0; stroke-width: 2; stroke-dasharray: 8; stroke: #000000" points="1266.76,372 1267.99,372 1035.51,372 1034.51,372 "/>
    <polygon style="fill: #ffffff" points="1266.76,380 1282.76,372 1266.76,364 "/>
    <polygon style="fill: none; fill-opacity:0; stroke-width: 2; stroke: #000000" points="1266.76,380 1282.76,372 1266.76,364 "/>
  </g>
  <g>
    <polyline style="fill: none; fill-opacity:0; stroke-width: 2; stroke-dasharray: 8; stroke: #000000" points="1415.05,308.765 1415.05,236 1020.85,236 1020.85,157 "/>
    <polygon style="fill: #ffffff" points="1407.05,308.765 1415.05,324.765 1423.05,308.765 "/>
    <polygon style="fill: none; fill-opacity:0; stroke-width: 2; stroke: #000000" points="1407.05,308.765 1415.05,324.765 1423.05,308.765 "/>
  </g>
  <g>
    <polyline style="fill: none; fill-opacity:0; stroke-width: 2; stroke: #000000" points="118.87,554.308 118.87,734 507.187,734 507.187,716.207 "/>
    <polygon style="fill: #ffffff" points="126.87,554.308 118.87,538.308 110.87,554.308 "/>
    <polygon style="fill: none; fill-opacity:0; stroke-width: 2; stroke: #000000" points="126.87,554.308 118.87,538.308 110.87,554.308 "/>
  </g>
  <g>
    <polyline style="fill: none; fill-opacity:0; stroke-width: 2; stroke-dasharray: 8; stroke: #000000" points="802.893,147 739.118,147 739.118,-57.8659 674.047,-57.8659 "/>
    <polyline style="fill: none; fill-opacity:0; stroke-width: 2; stroke: #000000" points="686.694,-62.8659 670.694,-57.8659 686.694,-52.8659 "/>
  </g>
  <g>
    <polyline style="fill: none; fill-opacity:0; stroke-width: 2; stroke-dasharray: 8; stroke: #000000" points="802.893,147 679.836,147 679.836,65.5182 555.484,65.5182 "/>
    <polyline style="fill: none; fill-opacity:0; stroke-width: 2; stroke: #000000" points="568.131,60.5182 552.131,65.5182 568.131,70.5182 "/>
  </g>
  <g>
    <polyline style="fill: none; fill-opacity:0; stroke-width: 2; stroke-dasharray: 8; stroke: #000000" points="800.993,372 727.596,372 727.596,314.277 652.905,314.277 "/>
    <polyline style="fill: none; fill-opacity:0; stroke-width: 2; stroke: #000000" points="665.552,309.277 649.552,314.277 665.552,319.277 "/>
  </g>
  <g>
    <polyline style="fill: none; fill-opacity:0; stroke-width: 2; stroke-dasharray: 8; stroke: #000000" points="800.993,372 729.867,372 729.867,443.418 657.446,443.418 "/>
    <polyline style="fill: none; fill-opacity:0; stroke-width: 2; stroke: #000000" points="670.093,438.418 654.093,443.418 670.093,448.418 "/>
  </g>
  <g>
    <polyline style="fill: none; fill-opacity:0; stroke-width: 2; stroke-dasharray: 8; stroke: #000000" points="1054.88,700.686 828.224,700.686 828.224,630.006 600.269,630.006 "/>
    <polyline style="fill: none; fill-opacity:0; stroke-width: 2; stroke: #000000" points="612.916,625.006 596.916,630.006 612.916,635.006 "/>
  </g>
  <g>
    <polyline style="fill: none; fill-opacity:0; stroke-width: 2; stroke-dasharray: 8; stroke: #000000" points="1054.89,700.686 707.911,700.686 707.911,679 633.263,679 "/>
    <polyline style="fill: none; fill-opacity:0; stroke-width: 2; stroke: #000000" points="645.91,674 629.91,679 645.91,684 "/>
  </g>
  <g>
    <rect style="fill: #ffffff" x="1625.84" y="341.418" width="325.7" height="28"/>
    <rect style="fill: none; fill-opacity:0; stroke-width: 2; stroke: #000000" x="1625.84" y="341.418" width="325.7" height="28"/>
    <text font-size="16" style="fill: #000000;text-anchor:middle;font-family:sans-serif;font-style:normal;font-weight:700" x="1788.69" y="361.418">Cliente</text>
    <rect style="fill: #ffffff" x="1625.84" y="369.418" width="325.7" height="20"/>
    <rect style="fill: none; fill-opacity:0; stroke-width: 2; stroke: #000000" x="1625.84" y="369.418" width="325.7" height="20"/>
    <text font-size="12.8" style="fill: #000000;text-anchor:start;font-family:monospace;font-style:normal;font-weight:normal" x="1628.84" y="382.618">-factory: EntradaSalidaFabricaAbstracta</text>
    <rect style="fill: #ffffff" x="1625.84" y="389.418" width="325.7" height="36"/>
    <rect style="fill: none; fill-opacity:0; stroke-width: 2; stroke: #000000" x="1625.84" y="389.418" width="325.7" height="36"/>
    <text font-size="12.8" style="fill: #000000;text-anchor:start;font-family:monospace;font-style:normal;font-weight:normal" x="1628.84" y="402.618">+Cliente(f:EntradaSalidaFabricaAbstracta)</text>
    <text font-size="12.8" style="fill: #000000;text-anchor:start;font-family:monospace;font-style:normal;font-weight:normal" x="1628.84" y="418.618">+mostrarDatos()</text>
  </g>
  <g>
    <polyline style="fill: none; fill-opacity:0; stroke-width: 2; stroke: #000000" points="210.12,328 352.942,328 352.942,613 498,613 "/>
    <polygon style="fill: #ffffff" points="210.12,320 194.12,328 210.12,336 "/>
    <polygon style="fill: none; fill-opacity:0; stroke-width: 2; stroke: #000000" points="210.12,320 194.12,328 210.12,336 "/>
  </g>
  <g>
    <polyline style="fill: none; fill-opacity:0; stroke-width: 2; stroke: #000000" points="257.606,493.084 531.711,493.084 531.711,439.254 516.549,439.254 "/>
    <polygon style="fill: #ffffff" points="257.606,485.084 241.606,493.084 257.606,501.084 "/>
    <polygon style="fill: none; fill-opacity:0; stroke-width: 2; stroke: #000000" points="257.606,485.084 241.606,493.084 257.606,501.084 "/>
  </g>
  <g>
    <polyline style="fill: none; fill-opacity:0; stroke-width: 2; stroke: #000000" points="209.11,314 256.781,314 256.781,314.277 464.799,314.277 "/>
    <polygon style="fill: #ffffff" points="209.11,306 193.11,314 209.11,322 "/>
    <polygon style="fill: none; fill-opacity:0; stroke-width: 2; stroke: #000000" points="209.11,306 193.11,314 209.11,322 "/>
  </g>
  <g>
    <polyline style="fill: none; fill-opacity:0; stroke-width: 2; stroke: #000000" points="257.606,525.084 280.124,525.084 280.124,65.5182 305.765,65.5182 "/>
    <polygon style="fill: #ffffff" points="257.606,517.084 241.606,525.084 257.606,533.084 "/>
    <polygon style="fill: none; fill-opacity:0; stroke-width: 2; stroke: #000000" points="257.606,517.084 241.606,525.084 257.606,533.084 "/>
  </g>
  <g>
    <polyline style="fill: none; fill-opacity:0; stroke-width: 2; stroke: #000000" points="112.724,281.764 112.724,-71.8659 510.032,-71.8659 "/>
    <polygon style="fill: #ffffff" points="104.724,281.764 112.724,297.764 120.724,281.764 "/>
    <polygon style="fill: none; fill-opacity:0; stroke-width: 2; stroke: #000000" points="104.724,281.764 112.724,297.764 120.724,281.764 "/>
  </g>
  <g>
    <polyline style="fill: none; fill-opacity:0; stroke-width: 2; stroke: #000000" points="1624.83,383.418 1585.7,383.418 1585.7,375.182 1551.04,375.182 "/>
    <polyline style="fill: none; fill-opacity:0; stroke-width: 2; stroke: #000000" points="1558.8,370.182 1548.8,375.182 1558.8,380.182 "/>
  </g>
  <g>
    <rect style="fill: #ffffff" x="653.501" y="498.029" width="167.5" height="28"/>
    <rect style="fill: none; fill-opacity:0; stroke-width: 2; stroke: #000000" x="653.501" y="498.029" width="167.5" height="28"/>
    <text font-size="16" style="fill: #000000;text-anchor:middle;font-family:sans-serif;font-style:normal;font-weight:700" x="737.251" y="518.029">AdaptadorStringInt</text>
    <rect style="fill: #ffffff" x="653.501" y="526.029" width="167.5" height="8"/>
    <rect style="fill: none; fill-opacity:0; stroke-width: 2; stroke: #000000" x="653.501" y="526.029" width="167.5" height="8"/>
    <rect style="fill: #ffffff" x="653.501" y="534.029" width="167.5" height="20"/>
    <rect style="fill: none; fill-opacity:0; stroke-width: 2; stroke: #000000" x="653.501" y="534.029" width="167.5" height="20"/>
    <text font-size="12.8" style="fill: #000000;text-anchor:start;font-family:monospace;font-style:normal;font-weight:normal" x="656.501" y="547.229">+conventir(): Int</text>
  </g>
  <g>
    <rect style="fill: #ffffff" x="465.794" y="278.277" width="179.4" height="28"/>
    <rect style="fill: none; fill-opacity:0; stroke-width: 2; stroke: #000000" x="465.794" y="278.277" width="179.4" height="28"/>
    <text font-size="16" style="fill: #000000;text-anchor:middle;font-family:sans-serif;font-style:normal;font-weight:700" x="555.494" y="298.277">EntradaFrame</text>
    <rect style="fill: #ffffff" x="465.794" y="306.277" width="179.4" height="8"/>
    <rect style="fill: none; fill-opacity:0; stroke-width: 2; stroke: #000000" x="465.794" y="306.277" width="179.4" height="8"/>
    <rect style="fill: #ffffff" x="465.794" y="314.277" width="179.4" height="36"/>
    <rect style="fill: none; fill-opacity:0; stroke-width: 2; stroke: #000000" x="465.794" y="314.277" width="179.4" height="36"/>
    <text font-size="12.8" style="fill: #000000;text-anchor:start;font-family:monospace;font-style:normal;font-weight:normal" x="468.794" y="327.477">+capturar(): String</text>
    <text font-size="12.8" style="fill: #000000;text-anchor:start;font-family:monospace;font-style:normal;font-weight:normal" x="468.794" y="343.477">+eleccionComida(): Int</text>
  </g>
  <g>
    <rect style="fill: #ffffff" x="437.264" y="584.006" width="156.3" height="28"/>
    <rect style="fill: none; fill-opacity:0; stroke-width: 2; stroke: #000000" x="437.264" y="584.006" width="156.3" height="28"/>
    <text font-size="16" style="fill: #000000;text-anchor:middle;font-family:sans-serif;font-style:normal;font-weight:700" x="515.414" y="604.006">EntradaConsola</text>
    <rect style="fill: #ffffff" x="437.264" y="612.006" width="156.3" height="8"/>
    <rect style="fill: none; fill-opacity:0; stroke-width: 2; stroke: #000000" x="437.264" y="612.006" width="156.3" height="8"/>
    <rect style="fill: #ffffff" x="437.264" y="620.006" width="156.3" height="20"/>
    <rect style="fill: none; fill-opacity:0; stroke-width: 2; stroke: #000000" x="437.264" y="620.006" width="156.3" height="20"/>
    <text font-size="12.8" style="fill: #000000;text-anchor:start;font-family:monospace;font-style:normal;font-weight:normal" x="440.264" y="633.206">+capturar(): String</text>
  </g>
  <g>
    <rect style="fill: #ffffff" x="408.733" y="415.418" width="241" height="28"/>
    <rect style="fill: none; fill-opacity:0; stroke-width: 2; stroke: #000000" x="408.733" y="415.418" width="241" height="28"/>
    <text font-size="16" style="fill: #000000;text-anchor:middle;font-family:sans-serif;font-style:normal;font-weight:700" x="529.233" y="435.418">SalidaFrame</text>
    <rect style="fill: #ffffff" x="408.733" y="443.418" width="241" height="8"/>
    <rect style="fill: none; fill-opacity:0; stroke-width: 2; stroke: #000000" x="408.733" y="443.418" width="241" height="8"/>
    <rect style="fill: #ffffff" x="408.733" y="451.418" width="241" height="20"/>
    <rect style="fill: none; fill-opacity:0; stroke-width: 2; stroke: #000000" x="408.733" y="451.418" width="241" height="20"/>
    <text font-size="12.8" style="fill: #000000;text-anchor:start;font-family:monospace;font-style:normal;font-weight:normal" x="411.733" y="464.618">+mostrar(mensaje:String): void</text>
  </g>
  <g>
    <rect style="fill: #ffffff" x="386.687" y="659.223" width="241" height="28"/>
    <rect style="fill: none; fill-opacity:0; stroke-width: 2; stroke: #000000" x="386.687" y="659.223" width="241" height="28"/>
    <text font-size="16" style="fill: #000000;text-anchor:middle;font-family:sans-serif;font-style:normal;font-weight:700" x="507.187" y="679.223">SalidaConsola</text>
    <rect style="fill: #ffffff" x="386.687" y="687.223" width="241" height="8"/>
    <rect style="fill: none; fill-opacity:0; stroke-width: 2; stroke: #000000" x="386.687" y="687.223" width="241" height="8"/>
    <rect style="fill: #ffffff" x="386.687" y="695.223" width="241" height="20"/>
    <rect style="fill: none; fill-opacity:0; stroke-width: 2; stroke: #000000" x="386.687" y="695.223" width="241" height="20"/>
    <text font-size="12.8" style="fill: #000000;text-anchor:start;font-family:monospace;font-style:normal;font-weight:normal" x="389.687" y="708.423">+mostrar(mensaje:String): void</text>
  </g>
  <g>
    <rect style="fill: #ffffff" x="896.828" y="490.809" width="158.3" height="44"/>
    <rect style="fill: none; fill-opacity:0; stroke-width: 2; stroke: #000000" x="896.828" y="490.809" width="158.3" height="44"/>
    <text font-size="12.8" style="fill: #000000;text-anchor:middle;font-family:monospace;font-style:normal;font-weight:normal" x="975.978" y="506.009">&lt;&lt;Interface&gt;&gt;</text>
    <text font-size="16" style="fill: #000000;text-anchor:middle;font-family:sans-serif;font-style:normal;font-weight:700" x="975.978" y="526.809">InterfaceStringInt</text>
    <rect style="fill: #ffffff" x="896.828" y="534.809" width="158.3" height="8"/>
    <rect style="fill: none; fill-opacity:0; stroke-width: 2; stroke: #000000" x="896.828" y="534.809" width="158.3" height="8"/>
    <rect style="fill: #ffffff" x="896.828" y="542.809" width="158.3" height="20"/>
    <rect style="fill: none; fill-opacity:0; stroke-width: 2; stroke: #000000" x="896.828" y="542.809" width="158.3" height="20"/>
    <text font-size="12.8" style="fill: #000000;text-anchor:start;font-family:monospace;font-style:normal;font-weight:normal" x="899.828" y="556.009">+convertir(): Int</text>
  </g>
  <g>
    <polyline style="fill: none; fill-opacity:0; stroke-width: 2; stroke: #000000" points="515.414,584.006 510.019,584.006 510.019,526.029 648.233,526.029 "/>
    <polyline style="fill: none; fill-opacity:0; stroke-width: 2; stroke: #000000" points="640.469,531.029 650.469,526.029 640.469,521.029 "/>
  </g>
  <g>
    <polyline style="fill: none; fill-opacity:0; stroke-width: 2; stroke-dasharray: 8; stroke: #000000" points="877.582,526.809 850.912,526.809 850.912,526.029 822.007,526.029 "/>
    <polygon style="fill: #ffffff" points="877.582,534.809 893.582,526.809 877.582,518.809 "/>
    <polygon style="fill: none; fill-opacity:0; stroke-width: 2; stroke: #000000" points="877.582,534.809 893.582,526.809 877.582,518.809 "/>
  </g>
  <g>
    <polyline style="fill: none; fill-opacity:0; stroke-width: 2; stroke: #000000" points="737.251,554.029 739.131,554.029 739.131,612.006 599.041,612.006 "/>
    <polyline style="fill: none; fill-opacity:0; stroke-width: 2; stroke: #000000" points="606.805,607.006 596.805,612.006 606.805,617.006 "/>
  </g>
</svg>
